<svg width="22" height="22" viewBox="0 0 22 22" fill="none" xmlns="http://www.w3.org/2000/svg">
<path d="M1.02229 8.45837L18.7528 0.266968C19.1903 0.0560303 19.5926 -0.0299072 19.9598 0.00915527C20.3348 0.0482178 20.6434 0.18103 20.8856 0.407593C21.1278 0.626343 21.2723 0.915405 21.3192 1.27478C21.366 1.63416 21.2879 2.04041 21.0848 2.49353L12.9168 20.1185C12.7528 20.4623 12.5457 20.724 12.2957 20.9037C12.0457 21.0912 11.7762 21.1967 11.4871 21.2201C11.2059 21.2513 10.9403 21.2084 10.6903 21.0912C10.4403 20.9818 10.2332 20.8021 10.0692 20.5521C9.91291 20.3099 9.83479 20.0013 9.83479 19.6263L9.81135 11.6459C9.81135 11.5443 9.76448 11.4935 9.67073 11.4935L1.63166 11.4584C1.27229 11.4584 0.967601 11.3802 0.717601 11.224C0.467601 11.0677 0.280101 10.8685 0.155101 10.6263C0.0379136 10.3763 -0.0128676 10.1146 0.00275735 9.84119C0.0183824 9.56775 0.108226 9.30994 0.272289 9.06775C0.444164 8.81775 0.694164 8.61462 1.02229 8.45837ZM3.38948 9.54822L10.8309 9.50134C11.1356 9.50134 11.3699 9.58728 11.534 9.75916C11.6981 9.92322 11.7801 10.1537 11.7801 10.4506L11.7332 17.9037C11.7332 17.9271 11.741 17.9388 11.7567 17.9388C11.7723 17.9388 11.784 17.931 11.7918 17.9154L18.8817 2.49353C18.9051 2.45447 18.909 2.42712 18.8934 2.4115C18.8778 2.39587 18.8504 2.39587 18.8114 2.4115L3.37776 9.46619C3.35432 9.48181 3.3426 9.50134 3.3426 9.52478C3.35041 9.54041 3.36604 9.54822 3.38948 9.54822Z" fill="#E5F0D3"/>
</svg>
