<svg width="24" height="22" viewBox="0 0 24 22" fill="none" xmlns="http://www.w3.org/2000/svg">
<path d="M1.37109 21.5742C0.941406 21.5742 0.605469 21.4531 0.363281 21.2109C0.121094 20.9688 0 20.625 0 20.1797V5.27344C0 4.875 0.0820312 4.53516 0.246094 4.25391C0.417969 3.96484 0.679688 3.71875 1.03125 3.51562L6.65625 0.328125C7.02344 0.109375 7.42969 0 7.875 0C8.32031 0 8.73047 0.109375 9.10547 0.328125L15.0234 3.9375L20.7656 0.738281C20.9688 0.628906 21.1523 0.546875 21.3164 0.492188C21.4805 0.4375 21.6406 0.410156 21.7969 0.410156C22.2344 0.410156 22.5742 0.53125 22.8164 0.773438C23.0586 1.01562 23.1797 1.35547 23.1797 1.79297V16.6992C23.1797 17.0977 23.0938 17.4414 22.9219 17.7305C22.7578 18.0195 22.5 18.2656 22.1484 18.4688L16.4883 21.668C16.1133 21.8789 15.707 21.9844 15.2695 21.9844C14.8164 21.9844 14.3711 21.8672 13.9336 21.6328L7.92188 18.2578L2.40234 21.2461C2.20703 21.3477 2.02734 21.4258 1.86328 21.4805C1.69922 21.543 1.53516 21.5742 1.37109 21.5742ZM7.06641 16.3945V2.37891C7.00391 2.41797 6.94141 2.45312 6.87891 2.48438C6.82422 2.51562 6.76172 2.55078 6.69141 2.58984L2.30859 5.13281C2.17578 5.21094 2.07812 5.30469 2.01562 5.41406C1.96094 5.51562 1.93359 5.63672 1.93359 5.77734V18.8672C1.93359 19.0078 1.98828 19.0781 2.09766 19.0781C2.14453 19.0781 2.20703 19.0586 2.28516 19.0195L7.06641 16.3945ZM9.01172 16.5117L13.6992 19.1484C13.7773 19.1875 13.8555 19.2266 13.9336 19.2656C14.0117 19.3125 14.0898 19.3555 14.168 19.3945V5.73047L9.36328 2.82422C9.30859 2.78516 9.25 2.75 9.1875 2.71875C9.125 2.6875 9.06641 2.65625 9.01172 2.625V16.5117ZM16.1016 19.5703C16.1875 19.5312 16.2734 19.4883 16.3594 19.4414C16.4453 19.3945 16.5312 19.3477 16.6172 19.3008L20.8594 16.8281C21 16.75 21.0977 16.6602 21.1523 16.5586C21.207 16.457 21.2344 16.332 21.2344 16.1836V3.11719C21.2344 3.05469 21.2188 3.00391 21.1875 2.96484C21.1641 2.92578 21.125 2.90625 21.0703 2.90625C21.0234 2.90625 20.9648 2.92969 20.8945 2.97656L16.1016 5.57812V19.5703Z" fill="#E5F0D3"/>
</svg>
