<svg width="24" height="21" viewBox="0 0 24 21" fill="none" xmlns="http://www.w3.org/2000/svg">
<path d="M2.58844 15.5076V6.39721C2.58844 5.25023 2.80398 4.24951 3.23506 3.39505C3.66614 2.54059 4.26658 1.87857 5.03636 1.409C5.81384 0.939434 6.71449 0.704649 7.73831 0.704649C8.73903 0.704649 9.62813 0.943283 10.4056 1.42055C11.1908 1.89012 11.8066 2.55213 12.2531 3.40659C12.6996 4.25336 12.9228 5.25023 12.9228 6.39721V14.2952C12.9228 15.2651 13.1884 16.0311 13.7195 16.593C14.2584 17.155 14.9358 17.4359 15.7518 17.4359C16.5677 17.4359 17.2375 17.155 17.7609 16.593C18.2844 16.0234 18.5461 15.2574 18.5461 14.2952V4.84994H20.9016V14.122C20.9016 15.269 20.6822 16.2697 20.2435 17.1242C19.8124 17.9709 19.2081 18.6291 18.4306 19.0987C17.6608 19.5682 16.7679 19.803 15.7518 19.803C14.7434 19.803 13.8504 19.5682 13.0729 19.0987C12.2954 18.6291 11.6835 17.9671 11.237 17.1126C10.7905 16.2582 10.5673 15.2613 10.5673 14.122V6.21246C10.5673 5.24253 10.2978 4.4766 9.75899 3.91465C9.22784 3.34501 8.55428 3.06019 7.73831 3.06019C6.92233 3.06019 6.25262 3.34501 5.72917 3.91465C5.20571 4.48429 4.94399 5.25023 4.94399 6.21246V15.5076H2.58844ZM0.87952 14.734H6.64136C7.08014 14.734 7.35726 14.8725 7.47273 15.1497C7.5882 15.4268 7.51507 15.7424 7.25334 16.0965L4.50521 19.9762C4.29737 20.261 4.05103 20.4035 3.76621 20.4035C3.48909 20.4111 3.24276 20.2687 3.02722 19.9762L0.267541 16.108C0.0135122 15.7539 -0.0596174 15.4383 0.0481525 15.1612C0.155922 14.8764 0.433045 14.734 0.87952 14.734ZM16.8487 5.68131C16.4022 5.68131 16.1213 5.54275 16.0058 5.26563C15.898 4.98081 15.975 4.66134 16.2367 4.30724L18.9964 0.427527C19.2043 0.135008 19.4506 -0.00740178 19.7354 0.000296071C20.0202 0.000296071 20.2666 0.142706 20.4744 0.427527L23.2225 4.30724C23.4766 4.66904 23.5458 4.9885 23.4304 5.26563C23.3226 5.54275 23.0493 5.68131 22.6106 5.68131H16.8487Z" fill="#E5F0D3"/>
</svg>
