<svg width="60" height="53" viewBox="0 0 60 53" fill="none" xmlns="http://www.w3.org/2000/svg">
<path d="M17.2526 37.735H13.1091V16.5312C13.1091 14.1443 13.7579 12.2557 15.0457 10.8543C16.3343 9.45204 17.9813 8.75048 19.9949 8.75048C22.0086 8.75048 23.6655 9.45208 24.9735 10.8548L24.9745 10.8558C26.2996 12.2378 26.9673 14.1255 26.9673 16.5312V36.305C26.9673 39.1664 27.5281 41.675 28.653 43.8279C29.7771 45.9792 31.3194 47.6483 33.2798 48.8323C35.2407 50.0166 37.4914 50.6076 40.0286 50.6076C42.5848 50.6076 44.8356 50.0167 46.7777 48.8321C48.738 47.6481 50.2612 45.9885 51.3469 43.8559C52.4523 41.7031 53.0033 39.1852 53.0033 36.305V15.3033H57.1756C58.2901 15.3033 59.0263 14.9497 59.3179 14.2014C59.6246 13.4639 59.4318 12.6285 58.7873 11.7106L58.7871 11.7103L51.9168 2.01101L51.916 2.00987C51.3829 1.27932 50.7401 0.901193 49.989 0.900741C49.2356 0.880851 48.5916 1.26082 48.0587 2.01085C48.0587 2.01087 48.0587 2.01088 48.0587 2.0109L41.1606 11.7087C41.1604 11.7089 41.1602 11.7092 41.16 11.7095C40.4957 12.6086 40.2839 13.4431 40.5701 14.1995L40.5701 14.1995L40.5714 14.2025C40.8828 14.9499 41.6372 15.3033 42.771 15.3033H46.9144V36.738C46.9144 39.1246 46.2658 41.013 44.9783 42.4144C43.6898 43.7976 42.0427 44.4898 40.0286 44.4898C38.0145 44.4898 36.3476 43.7975 35.0203 42.4135C33.7144 41.0316 33.0562 39.1439 33.0562 36.738V16.993C33.0562 14.1126 32.4955 11.6039 31.3705 9.47009C30.2463 7.31872 28.6944 5.64973 26.715 4.46585C24.7542 3.2623 22.5131 2.66162 19.9949 2.66162C17.4195 2.66162 15.1496 3.25241 13.1884 4.43691L13.188 4.43714C11.2466 5.62138 9.73311 7.29084 8.64755 9.44258C7.56153 11.5952 7.02028 14.113 7.02028 16.993V37.735H2.84797C1.71337 37.735 0.967165 38.0988 0.676185 38.8672C0.389683 39.6045 0.591964 40.4296 1.23677 41.3284L8.13581 50.9986L8.13672 50.9999C8.68797 51.748 9.3313 52.1285 10.0661 52.1086C10.8171 52.1082 11.4599 51.73 11.993 50.9995L11.9938 50.9984L18.8629 41.3007C18.8631 41.3005 18.8633 41.3002 18.8635 41.3C19.5276 40.4011 19.7311 39.5744 19.4233 38.8357C19.1122 38.089 18.3682 37.735 17.2526 37.735Z" fill="#000200" stroke="#000200" stroke-width="0.2"/>
</svg>
